<mxfile host="app.diagrams.net" modified="2022-10-13T10:25:43.862Z" agent="5.0 (Windows NT 10.0; Win64; x64) AppleWebKit/537.36 (KHTML, like Gecko) Chrome/105.0.0.0 Safari/537.36" etag="jtL4SdmVhsfVRJBq8IK_" version="20.4.0" type="github">
  <diagram id="0izHpiMmwXvFCV-anxNL" name="第 1 页">
    <mxGraphModel dx="865" dy="488" grid="1" gridSize="10" guides="1" tooltips="1" connect="1" arrows="1" fold="1" page="1" pageScale="1" pageWidth="827" pageHeight="1169" math="0" shadow="0">
      <root>
        <mxCell id="0" />
        <mxCell id="1" parent="0" />
        <mxCell id="FTtGF4tUwMmaU5lpnyhI-1" value="&lt;font style=&quot;font-size: 14px;&quot;&gt;根节点&lt;/font&gt;" style="rounded=1;whiteSpace=wrap;html=1;" vertex="1" parent="1">
          <mxGeometry x="392" y="113" width="90" height="50" as="geometry" />
        </mxCell>
        <mxCell id="FTtGF4tUwMmaU5lpnyhI-2" value="&lt;font style=&quot;font-size: 14px;&quot;&gt;叶节点&lt;/font&gt;" style="rounded=0;whiteSpace=wrap;html=1;" vertex="1" parent="1">
          <mxGeometry x="260" y="250" width="100" height="50" as="geometry" />
        </mxCell>
        <mxCell id="FTtGF4tUwMmaU5lpnyhI-4" value="" style="endArrow=classic;html=1;rounded=0;" edge="1" parent="1">
          <mxGeometry width="50" height="50" relative="1" as="geometry">
            <mxPoint x="309.75" y="210" as="sourcePoint" />
            <mxPoint x="310.25" y="250" as="targetPoint" />
          </mxGeometry>
        </mxCell>
        <mxCell id="FTtGF4tUwMmaU5lpnyhI-5" value="" style="endArrow=none;html=1;rounded=0;" edge="1" parent="1">
          <mxGeometry width="50" height="50" relative="1" as="geometry">
            <mxPoint x="310" y="210" as="sourcePoint" />
            <mxPoint x="560" y="210" as="targetPoint" />
          </mxGeometry>
        </mxCell>
        <mxCell id="FTtGF4tUwMmaU5lpnyhI-6" value="" style="endArrow=classic;html=1;rounded=0;" edge="1" parent="1">
          <mxGeometry width="50" height="50" relative="1" as="geometry">
            <mxPoint x="560" y="210" as="sourcePoint" />
            <mxPoint x="560" y="250" as="targetPoint" />
          </mxGeometry>
        </mxCell>
        <mxCell id="FTtGF4tUwMmaU5lpnyhI-7" value="&lt;span style=&quot;font-size: 14px;&quot;&gt;内部节点&lt;/span&gt;" style="rounded=0;whiteSpace=wrap;html=1;" vertex="1" parent="1">
          <mxGeometry x="510" y="250" width="100" height="50" as="geometry" />
        </mxCell>
        <mxCell id="FTtGF4tUwMmaU5lpnyhI-9" value="&lt;span style=&quot;font-size: 14px;&quot;&gt;叶节点&lt;/span&gt;" style="rounded=0;whiteSpace=wrap;html=1;" vertex="1" parent="1">
          <mxGeometry x="440" y="349" width="100" height="50" as="geometry" />
        </mxCell>
        <mxCell id="FTtGF4tUwMmaU5lpnyhI-10" value="&lt;span style=&quot;font-size: 14px;&quot;&gt;叶节点&lt;/span&gt;" style="rounded=0;whiteSpace=wrap;html=1;" vertex="1" parent="1">
          <mxGeometry x="600" y="349" width="100" height="50" as="geometry" />
        </mxCell>
        <mxCell id="FTtGF4tUwMmaU5lpnyhI-11" value="" style="endArrow=none;html=1;rounded=0;" edge="1" parent="1">
          <mxGeometry width="50" height="50" relative="1" as="geometry">
            <mxPoint x="490" y="320" as="sourcePoint" />
            <mxPoint x="650" y="320" as="targetPoint" />
          </mxGeometry>
        </mxCell>
        <mxCell id="FTtGF4tUwMmaU5lpnyhI-14" value="" style="endArrow=none;html=1;rounded=0;fontSize=14;" edge="1" parent="1">
          <mxGeometry width="50" height="50" relative="1" as="geometry">
            <mxPoint x="440" y="210" as="sourcePoint" />
            <mxPoint x="440" y="163" as="targetPoint" />
          </mxGeometry>
        </mxCell>
        <mxCell id="FTtGF4tUwMmaU5lpnyhI-15" value="" style="endArrow=none;html=1;rounded=0;fontSize=14;" edge="1" parent="1">
          <mxGeometry width="50" height="50" relative="1" as="geometry">
            <mxPoint x="560" y="320" as="sourcePoint" />
            <mxPoint x="560" y="300" as="targetPoint" />
          </mxGeometry>
        </mxCell>
        <mxCell id="FTtGF4tUwMmaU5lpnyhI-17" value="" style="endArrow=classic;html=1;rounded=0;fontSize=14;entryX=0.5;entryY=0;entryDx=0;entryDy=0;" edge="1" parent="1" target="FTtGF4tUwMmaU5lpnyhI-9">
          <mxGeometry width="50" height="50" relative="1" as="geometry">
            <mxPoint x="489.71" y="320" as="sourcePoint" />
            <mxPoint x="490" y="340" as="targetPoint" />
          </mxGeometry>
        </mxCell>
        <mxCell id="FTtGF4tUwMmaU5lpnyhI-19" value="" style="endArrow=classic;html=1;rounded=0;fontSize=14;entryX=0.5;entryY=0;entryDx=0;entryDy=0;" edge="1" parent="1">
          <mxGeometry width="50" height="50" relative="1" as="geometry">
            <mxPoint x="649.71" y="320" as="sourcePoint" />
            <mxPoint x="650" y="349" as="targetPoint" />
          </mxGeometry>
        </mxCell>
      </root>
    </mxGraphModel>
  </diagram>
</mxfile>
